<?xml version="1.0" encoding="UTF-8"?>
<!DOCTYPE svg PUBLIC "-//W3C//DTD SVG 1.1//EN" "http://www.w3.org/Graphics/SVG/1.1/DTD/svg11.dtd">
<!-- Creator: CorelDRAW 2021 (64-Bit) -->
<svg xmlns="http://www.w3.org/2000/svg" xml:space="preserve" width="7.84298in" height="5.45552in" version="1.1" style="shape-rendering:geometricPrecision; text-rendering:geometricPrecision; image-rendering:optimizeQuality; fill-rule:evenodd; clip-rule:evenodd"
viewBox="0 0 1450.62 1009.04"
 xmlns:xlink="http://www.w3.org/1999/xlink"
 xmlns:xodm="http://www.corel.com/coreldraw/odm/2003">
 <defs>
  <style type="text/css">
   <![CDATA[
    .fil0 {fill:white}
   ]]>
  </style>
 </defs>
 <g id="Layer_x0020_1">
  <metadata id="CorelCorpID_0Corel-Layer"/>
  <path class="fil0" d="M962.3 406.37l470.53 -0.97c-14.04,-4.6 -121.84,-7.65 -146.04,-8.71 -111.92,-4.91 -224.39,-11.79 -336.27,-15.87 -5.78,-10.93 -12.34,-21.39 -19.59,-31.3 -7.82,-11.2 -16.92,-21.63 -26.98,-31.23 -33.46,-32.95 -75.99,-56.69 -123.5,-67.19 -1.28,-0.33 -2.56,-0.65 -3.84,-0.96l-1.4 -0.15c-16.14,-3.21 -32.82,-4.9 -49.91,-4.9 -25.54,0 -50.2,3.78 -73.46,10.77 -4.25,1.06 -8.16,2.21 -11.13,3.63 -60.65,21.35 -110.76,65.01 -140.52,121.13l-480.34 23.83 468.58 1.63c-11.47,28.99 -17.78,60.58 -17.78,93.65 0,31.64 5.79,61.92 16.33,89.87l-486.99 1.2 423.38 20.8 74.89 3.58c42.09,82.62 127.95,139.21 227.04,139.21 99.16,0 185.07,-56.68 227.13,-139.4l81.68 -3.75 416.5 -20.74 -486.98 -0.91c10.54,-27.94 16.32,-58.22 16.32,-89.84 0,-32.96 -6.26,-64.46 -17.66,-93.37zm135.08 124.74l-5.34 -0.09 -4.4 0.03 -5.6 0 -1.89 0.09 -1.32 0.03c-0.34,0 -0.61,-0.07 -0.81,-0.2 -0.28,-0.18 -0.41,-0.44 -0.41,-0.77 0,-0.25 0.19,-0.65 0.56,-1.19 0.32,-0.46 0.8,-1.08 1.43,-1.84 1.97,-2.38 3.77,-4.81 5.39,-7.29 1.63,-2.49 3.08,-5.04 4.35,-7.63 1.28,-2.6 2.23,-4.95 2.87,-7.06l0.01 -0.02c0.63,-2.08 0.94,-3.91 0.94,-5.49 0,-1.02 -0.13,-1.92 -0.4,-2.71 -0.26,-0.77 -0.66,-1.44 -1.18,-1.99 -0.52,-0.55 -1.14,-0.97 -1.86,-1.25 -0.72,-0.28 -1.55,-0.42 -2.48,-0.42 -1.28,0 -2.49,0.25 -3.64,0.74 -1.15,0.49 -2.25,1.24 -3.29,2.24l-0.67 0.65c-0.14,0.14 -0.29,0.25 -0.45,0.34l-0.02 0.01c-0.17,0.08 -0.34,0.14 -0.51,0.15l-0.19 -0c-0.25,-0.02 -0.45,-0.11 -0.61,-0.27 -0.15,-0.16 -0.24,-0.38 -0.26,-0.64l0 -0.19c0.03,-0.46 0.26,-0.99 0.68,-1.6 0.39,-0.56 0.96,-1.21 1.71,-1.94 1.28,-1.24 2.69,-2.16 4.21,-2.78 1.53,-0.62 3.17,-0.93 4.93,-0.93 1.37,0 2.63,0.21 3.77,0.62 1.15,0.41 2.17,1.03 3.06,1.85 0.89,0.83 1.57,1.77 2.02,2.84 0.45,1.06 0.67,2.23 0.67,3.51 0,1.21 -0.22,2.57 -0.66,4.08 -0.43,1.48 -1.09,3.12 -1.96,4.91 -0.98,2.02 -2.04,4 -3.17,5.94l-0.03 0.04c-1.13,1.94 -2.35,3.84 -3.62,5.7 -1.38,2.02 -2.74,4.12 -4.15,6.1 -0.16,0.22 -0.28,0.41 -0.36,0.58 -0.06,0.14 -0.1,0.24 -0.1,0.32 0,0.09 0.46,0.21 1.36,0.35 1.15,0.18 2.91,0.27 5.27,0.27 1.28,0 2.4,-0.06 3.38,-0.18l0.03 -0c0.95,-0.12 1.75,-0.3 2.41,-0.54 0.65,-0.23 1.23,-0.54 1.72,-0.92 0.5,-0.39 0.93,-0.85 1.29,-1.4 0.2,-0.31 0.41,-0.56 0.61,-0.73 0.25,-0.21 0.51,-0.33 0.77,-0.35l0.21 0c0.22,0.02 0.4,0.09 0.54,0.22 0.16,0.14 0.24,0.33 0.26,0.56l-0 0.11c0,0.15 -0.03,0.31 -0.09,0.47 -0.05,0.14 -0.13,0.29 -0.24,0.43 -0.38,0.54 -0.75,1.25 -1.1,1.83 -0.49,0.84 -1.01,1.7 -1.55,2.58 -0.53,0.85 -1.1,1.73 -1.69,2.62 -0.09,0.14 -0.25,0.22 -0.41,0.22zm22.88 -42.03c1.91,0 3.65,0.5 5.22,1.51l0.02 0.02c1.55,0.99 2.92,2.47 4.12,4.44 1.2,1.95 2.09,4.17 2.69,6.65 0.59,2.47 0.89,5.21 0.89,8.19 0,3.13 -0.3,5.99 -0.91,8.59 -0.61,2.6 -1.52,4.95 -2.75,7.02 -1.24,2.1 -2.64,3.68 -4.21,4.73 -1.59,1.07 -3.35,1.61 -5.28,1.61 -2.13,0 -4.05,-0.45 -5.76,-1.35 -1.7,-0.9 -3.2,-2.25 -4.47,-4.04 -1.26,-1.78 -2.21,-3.85 -2.83,-6.21 -0.62,-2.35 -0.94,-4.99 -0.94,-7.91 0,-3.78 0.58,-7.45 1.74,-10.98 0.59,-1.77 1.27,-3.38 2.05,-4.8 0.79,-1.43 1.67,-2.69 2.67,-3.77l0.02 -0.02c1.12,-1.22 2.32,-2.13 3.6,-2.74 1.3,-0.62 2.68,-0.93 4.13,-0.93zm-2.15 4.3c-1.1,0 -2.09,0.31 -2.98,0.93 -0.9,0.63 -1.7,1.59 -2.4,2.88 -0.71,1.31 -1.25,2.85 -1.6,4.59 -0.36,1.76 -0.54,3.75 -0.54,5.96 0,2.93 0.27,5.64 0.81,8.12 0.54,2.47 1.35,4.72 2.43,6.75 1.06,2 2.24,3.51 3.52,4.5 1.24,0.97 2.6,1.45 4.05,1.45 1.21,0 2.29,-0.33 3.23,-0.99 0.96,-0.67 1.79,-1.69 2.49,-3.05 0.72,-1.39 1.26,-3.05 1.61,-4.99 0.36,-1.95 0.54,-4.18 0.54,-6.69 0,-2.86 -0.27,-5.47 -0.81,-7.82 -0.54,-2.34 -1.34,-4.43 -2.41,-6.26 -1.05,-1.81 -2.25,-3.17 -3.58,-4.07 -1.31,-0.88 -2.76,-1.33 -4.35,-1.33zm39.55 37.74l-5.34 -0.09 -4.4 0.03 -5.6 0 -1.89 0.09 -1.32 0.03c-0.34,0 -0.61,-0.07 -0.81,-0.2 -0.28,-0.18 -0.41,-0.44 -0.41,-0.77 0,-0.25 0.19,-0.65 0.56,-1.19 0.32,-0.46 0.8,-1.08 1.43,-1.84 1.97,-2.38 3.77,-4.81 5.39,-7.29 1.63,-2.49 3.08,-5.04 4.35,-7.63 1.28,-2.6 2.23,-4.95 2.87,-7.06l0.01 -0.02c0.63,-2.08 0.94,-3.91 0.94,-5.49 0,-1.02 -0.13,-1.92 -0.4,-2.71 -0.26,-0.77 -0.66,-1.44 -1.18,-1.99 -0.52,-0.55 -1.14,-0.97 -1.85,-1.25 -0.72,-0.28 -1.55,-0.42 -2.48,-0.42 -1.28,0 -2.49,0.25 -3.64,0.74 -1.15,0.49 -2.25,1.24 -3.29,2.24l-0.67 0.65c-0.14,0.14 -0.29,0.25 -0.45,0.34l-0.02 0.01c-0.17,0.08 -0.34,0.14 -0.51,0.15l-0.19 -0c-0.25,-0.02 -0.45,-0.11 -0.61,-0.27 -0.15,-0.16 -0.24,-0.38 -0.26,-0.64l0 -0.19c0.03,-0.46 0.26,-0.99 0.68,-1.6 0.39,-0.56 0.96,-1.21 1.71,-1.94 1.28,-1.24 2.69,-2.16 4.21,-2.78 1.53,-0.62 3.17,-0.93 4.93,-0.93 1.37,0 2.63,0.21 3.77,0.62 1.15,0.41 2.17,1.03 3.06,1.85 0.89,0.83 1.57,1.77 2.02,2.84 0.45,1.06 0.67,2.23 0.67,3.51 0,1.21 -0.22,2.57 -0.66,4.08 -0.44,1.48 -1.09,3.12 -1.96,4.91 -0.98,2.02 -2.04,4 -3.17,5.94l-0.03 0.04c-1.13,1.94 -2.35,3.84 -3.62,5.7 -1.38,2.02 -2.74,4.12 -4.15,6.1 -0.16,0.22 -0.28,0.41 -0.36,0.58 -0.06,0.14 -0.1,0.24 -0.1,0.32 0,0.09 0.46,0.21 1.36,0.35 1.15,0.18 2.91,0.27 5.27,0.27 1.28,0 2.4,-0.06 3.38,-0.18l0.03 -0c0.95,-0.12 1.75,-0.3 2.41,-0.54 0.65,-0.23 1.23,-0.54 1.72,-0.92 0.5,-0.39 0.93,-0.85 1.29,-1.4 0.2,-0.31 0.41,-0.56 0.61,-0.73 0.25,-0.21 0.51,-0.33 0.77,-0.35l0.21 0c0.22,0.02 0.4,0.09 0.54,0.22 0.16,0.14 0.24,0.33 0.26,0.56l-0 0.11c0,0.15 -0.03,0.31 -0.09,0.47 -0.05,0.14 -0.13,0.29 -0.24,0.43 -0.38,0.54 -0.75,1.25 -1.1,1.83 -0.49,0.84 -1.01,1.7 -1.55,2.58 -0.53,0.85 -1.1,1.73 -1.69,2.62 -0.09,0.14 -0.25,0.22 -0.41,0.22zm30.14 0l-5.34 -0.09 -4.4 0.03 -5.6 0 -1.89 0.09 -1.32 0.03c-0.34,0 -0.61,-0.07 -0.81,-0.2 -0.28,-0.18 -0.41,-0.44 -0.41,-0.77 0,-0.25 0.19,-0.65 0.56,-1.19 0.32,-0.46 0.8,-1.08 1.43,-1.84 1.97,-2.38 3.77,-4.81 5.39,-7.29 1.63,-2.49 3.08,-5.04 4.35,-7.63 1.28,-2.6 2.23,-4.95 2.87,-7.06l0.01 -0.02c0.63,-2.08 0.94,-3.91 0.94,-5.49 0,-1.02 -0.13,-1.92 -0.4,-2.71 -0.26,-0.77 -0.66,-1.44 -1.18,-1.99 -0.52,-0.55 -1.14,-0.97 -1.86,-1.25 -0.72,-0.28 -1.55,-0.42 -2.48,-0.42 -1.28,0 -2.49,0.25 -3.64,0.74 -1.15,0.49 -2.25,1.24 -3.29,2.24l-0.67 0.65c-0.14,0.14 -0.29,0.25 -0.45,0.34l-0.02 0.01c-0.17,0.08 -0.34,0.14 -0.51,0.15l-0.19 -0c-0.25,-0.02 -0.45,-0.11 -0.61,-0.27 -0.15,-0.16 -0.24,-0.38 -0.26,-0.64l0 -0.19c0.03,-0.46 0.26,-0.99 0.68,-1.6 0.39,-0.56 0.96,-1.21 1.71,-1.94 1.28,-1.24 2.69,-2.16 4.21,-2.78 1.53,-0.62 3.17,-0.93 4.93,-0.93 1.37,0 2.63,0.21 3.77,0.62 1.15,0.41 2.17,1.03 3.06,1.85 0.89,0.83 1.57,1.77 2.02,2.84 0.45,1.06 0.67,2.23 0.67,3.51 0,1.21 -0.22,2.57 -0.66,4.08 -0.43,1.48 -1.09,3.12 -1.96,4.91 -0.98,2.02 -2.04,4 -3.17,5.94l-0.03 0.04c-1.13,1.94 -2.35,3.84 -3.62,5.7 -1.38,2.02 -2.74,4.12 -4.15,6.1 -0.16,0.22 -0.28,0.41 -0.36,0.58 -0.06,0.14 -0.1,0.24 -0.1,0.32 0,0.09 0.46,0.21 1.36,0.35 1.15,0.18 2.91,0.27 5.27,0.27 1.28,0 2.4,-0.06 3.38,-0.18l0.03 -0c0.95,-0.12 1.75,-0.3 2.41,-0.54 0.65,-0.23 1.23,-0.54 1.72,-0.92 0.5,-0.39 0.93,-0.85 1.29,-1.4 0.2,-0.31 0.41,-0.56 0.61,-0.73 0.25,-0.21 0.51,-0.33 0.77,-0.35l0.21 0c0.22,0.02 0.4,0.09 0.54,0.22 0.16,0.14 0.24,0.33 0.26,0.56l-0 0.11c0,0.15 -0.03,0.31 -0.09,0.47 -0.05,0.14 -0.13,0.29 -0.24,0.43 -0.38,0.54 -0.75,1.25 -1.1,1.83 -0.49,0.84 -1.01,1.7 -1.55,2.58 -0.53,0.85 -1.1,1.73 -1.69,2.62 -0.09,0.14 -0.25,0.22 -0.41,0.22zm-977.79 -28.27c2.37,1.21 4.2,2.67 5.47,4.39 1.45,1.96 2.17,4.23 2.17,6.82 0,1.84 -0.3,3.53 -0.9,5.07 -0.6,1.54 -1.51,2.92 -2.71,4.13 -1.21,1.22 -2.57,2.13 -4.09,2.74 -1.52,0.61 -3.18,0.91 -5,0.91 -3.67,0 -6.71,-1.13 -9.1,-3.39 -1.2,-1.13 -2.1,-2.42 -2.7,-3.87 -0.6,-1.44 -0.9,-3.04 -0.9,-4.79 0,-1.24 0.15,-2.39 0.44,-3.45l0.01 -0.02c0.29,-1.06 0.73,-2.03 1.32,-2.9 0.58,-0.87 1.36,-1.73 2.33,-2.57 0.79,-0.69 1.72,-1.36 2.77,-2.04 -1.64,-1.03 -2.9,-2.22 -3.78,-3.57 -1.01,-1.55 -1.52,-3.31 -1.52,-5.27 0,-1.54 0.28,-2.95 0.84,-4.24 0.56,-1.29 1.39,-2.47 2.5,-3.51 1.1,-1.04 2.34,-1.83 3.7,-2.35 1.36,-0.52 2.84,-0.78 4.44,-0.78 3.03,0 5.59,0.92 7.65,2.75 1.04,0.92 1.82,1.95 2.34,3.09 0.52,1.15 0.79,2.4 0.79,3.75 0,1.04 -0.15,2.03 -0.46,2.97 -0.3,0.94 -0.76,1.82 -1.37,2.66 -0.6,0.83 -1.35,1.57 -2.21,2.23 -0.61,0.46 -1.28,0.88 -2.02,1.25zm-5.59 -15.91c-0.92,0 -1.76,0.15 -2.52,0.45 -0.76,0.3 -1.45,0.75 -2.07,1.35 -0.61,0.6 -1.08,1.27 -1.38,2.01 -0.3,0.74 -0.46,1.56 -0.46,2.45 0,1.35 0.3,2.54 0.9,3.56 0.61,1.02 1.52,1.89 2.75,2.6 0.9,0.51 1.76,0.89 2.57,1.15 0.81,0.25 1.6,0.37 2.34,0.37 0.8,0 1.53,-0.14 2.18,-0.43 0.64,-0.28 1.23,-0.72 1.74,-1.29 0.51,-0.58 0.9,-1.25 1.16,-1.99l0.01 -0.03c0.25,-0.74 0.38,-1.57 0.38,-2.49 0,-1.16 -0.18,-2.2 -0.53,-3.13 -0.35,-0.92 -0.87,-1.74 -1.57,-2.45 -0.7,-0.71 -1.51,-1.24 -2.41,-1.6 -0.92,-0.36 -1.94,-0.54 -3.09,-0.54zm-2.37 18.4c-1.92,0.88 -3.36,2.02 -4.32,3.4 -0.99,1.41 -1.48,3.11 -1.48,5.09 0,1.42 0.23,2.74 0.69,3.96 0.46,1.21 1.15,2.33 2.06,3.35l0.02 0.02c0.91,1.01 1.9,1.76 2.98,2.27 1.08,0.5 2.26,0.76 3.52,0.76 1.13,0 2.16,-0.19 3.09,-0.56 0.92,-0.37 1.74,-0.93 2.46,-1.67 0.72,-0.74 1.26,-1.59 1.62,-2.54 0.36,-0.95 0.55,-2.02 0.55,-3.2 0,-1.1 -0.21,-2.15 -0.62,-3.12 -0.41,-0.98 -1.04,-1.9 -1.88,-2.77 -0.62,-0.64 -1.55,-1.34 -2.8,-2.08 -1.25,-0.74 -2.8,-1.52 -4.67,-2.34l-1.21 -0.56zm40.17 17.87l0 -29.85c0,-1.14 -0.05,-2.09 -0.16,-2.87 -0.1,-0.75 -0.25,-1.33 -0.45,-1.74 -0.18,-0.38 -0.46,-0.69 -0.81,-0.94l-0.02 -0.01c-0.37,-0.25 -0.83,-0.44 -1.38,-0.55l-1.75 -0.38c-0.38,-0.07 -0.67,-0.2 -0.88,-0.39 -0.26,-0.23 -0.39,-0.51 -0.39,-0.86l0 -0.08c0.02,-0.34 0.17,-0.61 0.45,-0.8l0.03 -0.02c0.23,-0.14 0.53,-0.22 0.9,-0.22 0.74,0.02 1.52,0.12 2.25,0.2 0.5,0.05 1.18,0.1 2.01,0.12 0.8,0.03 1.79,0.04 2.95,0.04l2.4 -0.02c0.59,-0.01 1,-0.04 1.24,-0.06l1.14 -0.16 0.61 -0.06c0.31,0 0.57,0.09 0.76,0.27 0.2,0.19 0.3,0.44 0.3,0.76 0,0.32 -0.13,0.6 -0.37,0.82 -0.21,0.18 -0.48,0.31 -0.83,0.39l-0.03 0.01c-0.48,0.12 -0.89,0.28 -1.21,0.47 -0.31,0.18 -0.54,0.39 -0.7,0.63 -0.16,0.25 -0.29,0.6 -0.38,1.04 -0.09,0.48 -0.14,1.07 -0.14,1.77 0,1.24 -0,2.44 -0.03,3.68 0,9.51 1,21.65 -0.37,31.28 -0.35,1.65 -0.89,3.17 -1.6,4.56 -0.71,1.39 -1.6,2.65 -2.68,3.78 -1.08,1.14 -2.2,1.99 -3.36,2.57 -1.18,0.58 -2.4,0.87 -3.65,0.87 -0.76,0 -1.43,-0.18 -1.99,-0.53l-0.04 -0.03c-0.28,-0.19 -0.5,-0.39 -0.65,-0.61 -0.18,-0.26 -0.27,-0.54 -0.27,-0.85 0.06,-0.66 0.25,-1.3 0.42,-1.94 0.14,-0.65 0.32,-1.16 0.54,-1.51l0.02 -0.03c0.29,-0.44 0.65,-0.67 1.06,-0.67 0.24,0 0.49,0.1 0.74,0.31 0.2,0.15 0.42,0.38 0.66,0.67 0.35,0.41 0.71,0.72 1.08,0.91 0.35,0.19 0.72,0.28 1.11,0.28 0.46,0 0.89,-0.15 1.27,-0.45 0.42,-0.33 0.8,-0.84 1.15,-1.52l0.02 -0.03c0.35,-0.7 0.62,-1.48 0.8,-2.34 0.18,-0.89 0.28,-1.86 0.28,-2.93l-0.06 -2.97zm35.24 -12.46l-10.65 0c-0.7,0 -1.27,0.03 -1.69,0.08l-0.01 0c-0.37,0.05 -0.62,0.11 -0.73,0.18 -0.11,0.07 -0.27,0.28 -0.47,0.61 -0.23,0.37 -0.48,0.89 -0.77,1.53l-1.96 4.33c-0.42,0.96 -0.74,1.8 -0.96,2.51 -0.21,0.69 -0.31,1.25 -0.31,1.68 0,0.41 0.05,0.75 0.15,1.03 0.09,0.25 0.22,0.46 0.38,0.6 0.19,0.17 0.48,0.33 0.88,0.48l0.03 0.01c0.42,0.16 0.95,0.31 1.59,0.45 0.37,0.07 0.66,0.19 0.87,0.36l0.02 0.01c0.26,0.21 0.4,0.47 0.42,0.79l0 0.06c0,0.31 -0.13,0.56 -0.38,0.73 -0.19,0.13 -0.44,0.21 -0.76,0.22 -1.33,0 -2.68,-0.11 -4,-0.18l-1.5 -0.05 -2.45 -0 -0.54 0.03 -1.7 0.2c-0.37,0 -0.66,-0.08 -0.88,-0.22 -0.27,-0.19 -0.41,-0.46 -0.41,-0.82 0,-0.28 0.08,-0.51 0.23,-0.71 0.15,-0.19 0.36,-0.33 0.62,-0.41l1.09 -0.32c0.14,-0.05 0.31,-0.16 0.51,-0.35l0.02 -0.02c0.23,-0.21 0.5,-0.51 0.81,-0.9 0.33,-0.41 0.62,-0.83 0.88,-1.23 0.26,-0.41 0.5,-0.84 0.71,-1.27l0.85 -1.94 15.13 -33.59c0.15,-0.34 0.31,-0.6 0.48,-0.78l0.03 -0.02c0.23,-0.23 0.49,-0.35 0.77,-0.35 0.3,0 0.56,0.12 0.79,0.37 0.17,0.18 0.32,0.45 0.45,0.79l12.68 32.38 0.65 1.62c0.45,1.15 0.86,2.09 1.24,2.82 0.36,0.69 0.67,1.16 0.93,1.41 0.25,0.24 0.66,0.46 1.22,0.67 0.59,0.22 1.33,0.41 2.23,0.57l0.04 0.01c0.37,0.07 0.66,0.19 0.86,0.36 0.28,0.23 0.41,0.51 0.39,0.86 -0.02,0.34 -0.18,0.59 -0.46,0.76l-0.04 0.02c-0.21,0.11 -0.48,0.17 -0.82,0.17 -0.39,-0.02 -0.8,-0.02 -1.19,-0.06 -0.49,-0.04 -1.18,-0.07 -2.06,-0.09l-3.3 -0.03c-1.37,0 -2.48,0.02 -3.31,0.04 -0.82,0.03 -1.39,0.07 -1.72,0.13 -0.38,0.06 -0.63,0.1 -1.01,0.13 -0.84,0 -1.25,-0.38 -1.25,-1.12 0,-0.31 0.12,-0.57 0.36,-0.77 0.18,-0.16 0.44,-0.27 0.77,-0.34l0.93 -0.22c0.37,-0.07 0.64,-0.22 0.81,-0.45 0.18,-0.24 0.27,-0.6 0.27,-1.06 0,-0.48 -0.14,-1.21 -0.43,-2.2 -0.3,-1.03 -0.75,-2.3 -1.34,-3.83l-1.49 -3.9c-0.19,-0.51 -0.37,-0.92 -0.52,-1.21 -0.12,-0.24 -0.21,-0.38 -0.26,-0.41l-0.02 -0.02c-0.04,-0.03 -0.19,-0.07 -0.44,-0.1l-0.03 -0.01c-0.3,-0.04 -0.72,-0.05 -1.24,-0.05zm-0.11 -5.11c-1.62,-4.06 -3.27,-8.13 -4.84,-12.2 -0.09,-0.24 -0.18,-0.41 -0.26,-0.54l-5.81 12.85c-0.13,0.31 -0.25,0.57 -0.34,0.88 0,0.18 0.29,0.27 0.87,0.27l0.79 0.03 8.88 0c0.42,0 0.72,-0.04 0.89,-0.13 0.06,-0.03 0.1,-0.07 0.1,-0.11 0,-0.09 -0.04,-0.26 -0.13,-0.52l-0.15 -0.53zm54.88 -8.88l0 24.63c0,2.24 -0.06,3.63 -0.16,4.14l-0.01 0.02c-0.07,0.34 -0.22,0.6 -0.44,0.78 -0.23,0.19 -0.53,0.28 -0.88,0.27l-0.02 -0c-0.19,-0.01 -0.37,-0.05 -0.52,-0.11l-0.05 -0.02c-0.15,-0.07 -0.29,-0.15 -0.4,-0.26 -8.62,-9.19 -17.1,-19.6 -25.44,-29.15 -0.06,-0.06 -0.28,-0.32 -0.33,-0.33 -0.03,0 0.04,0.01 0.03,0.03l-0.01 0.02c-0.06,0.16 -0.09,0.43 -0.09,0.79 0,7.05 0.14,14.18 -0.03,21.22l0.09 2.08c0.06,0.59 0.17,1.1 0.32,1.5 0.14,0.37 0.31,0.66 0.52,0.85l0.01 0.01c0.21,0.19 0.54,0.37 0.99,0.53l0.02 0.01c0.48,0.17 1.09,0.31 1.81,0.42 0.41,0.05 0.73,0.16 0.96,0.34 0.29,0.22 0.43,0.52 0.43,0.9 0,0.33 -0.11,0.59 -0.32,0.79 -0.2,0.18 -0.47,0.28 -0.8,0.28l-0.46 -0.02 -1.37 -0.12 -4.64 -0.23 -2.49 0.08c-0.74,0.07 -1.47,0.17 -2.2,0.22 -0.35,0 -0.64,-0.07 -0.86,-0.22 -0.27,-0.18 -0.42,-0.43 -0.45,-0.76l-0 -0.03c-0.02,-0.31 0.1,-0.57 0.36,-0.8 0.18,-0.16 0.46,-0.3 0.8,-0.42 0.78,-0.27 1.44,-0.59 1.96,-0.94 0.5,-0.34 0.88,-0.72 1.14,-1.13 0.26,-0.42 0.46,-0.99 0.59,-1.71 0.14,-0.74 0.21,-1.63 0.21,-2.66l0 -20.05c0,-1.68 -0.13,-3.17 -0.4,-4.47 -0.26,-1.29 -0.65,-2.4 -1.17,-3.33l-0.01 -0.01c-0.5,-0.91 -1.11,-1.62 -1.83,-2.13 -0.72,-0.51 -1.55,-0.83 -2.49,-0.96 -0.36,-0.05 -0.64,-0.17 -0.84,-0.33 -0.25,-0.21 -0.38,-0.48 -0.38,-0.81 0,-0.33 0.12,-0.59 0.34,-0.78 0.2,-0.17 0.47,-0.25 0.8,-0.25 1.21,0.06 2.43,0.08 3.64,0.12l1.58 -0.06c0.34,-0 0.67,0.09 0.99,0.28 0.29,0.17 0.59,0.42 0.87,0.75 7.86,9.83 18.66,21.64 27.32,30.95 0,-6.13 -0.02,-12.25 0.03,-18.38l-0.35 -6.76c-0.1,-0.79 -0.26,-1.46 -0.48,-2 -0.21,-0.52 -0.49,-0.93 -0.83,-1.23 -0.35,-0.31 -0.84,-0.58 -1.48,-0.82 -0.67,-0.24 -1.5,-0.45 -2.47,-0.61 -0.38,-0.06 -0.67,-0.18 -0.88,-0.36l-0.02 -0.02c-0.25,-0.21 -0.37,-0.49 -0.37,-0.83 0,-0.36 0.15,-0.63 0.44,-0.82 0.22,-0.14 0.53,-0.21 0.9,-0.21 0.44,0.02 0.91,0.03 1.34,0.09 0.66,0.07 1.44,0.13 2.32,0.16 0.89,0.03 1.91,0.05 3.07,0.05 1.2,0 2.16,-0.05 2.86,-0.15 0.55,-0.07 0.97,-0.12 1.52,-0.16 0.37,0 0.66,0.09 0.88,0.26l0.03 0.03c0.23,0.19 0.36,0.46 0.4,0.8 0.02,0.29 -0.07,0.53 -0.28,0.73 -0.16,0.15 -0.38,0.27 -0.66,0.35l-0.05 0.01c-0.53,0.13 -0.98,0.31 -1.33,0.52l-0.02 0.01c-0.31,0.2 -0.55,0.43 -0.7,0.7 -0.16,0.29 -0.28,0.73 -0.37,1.3 -0.09,0.62 -0.14,1.39 -0.14,2.3 0,1.73 -0.01,3.39 -0.06,5.11zm466.22 -141.7l0.02 -0c0.2,0.01 0.39,0.07 0.56,0.15 1.72,0.62 1.91,1.45 0.57,2.49l-0.19 0.25c-0.37,0.48 -1.23,1.45 -2.6,2.89 -0.4,0.44 -0.84,0.89 -1.28,1.33l-0.56 0.57c-0.09,0.09 -0.18,0.16 -0.28,0.23l-2.37 1.73c-0.44,0.3 -0.93,0.61 -1.46,0.91 -0.5,0.29 -1.01,0.56 -1.52,0.81 -0.54,0.3 -1.13,0.6 -1.74,0.9 -0.69,0.34 -1.28,0.62 -1.84,0.87 -0.57,0.27 -1.21,0.55 -1.9,0.83 -0.65,0.26 -1.3,0.5 -1.93,0.73l-0.03 0.01c-0.59,0.22 -1.18,0.41 -1.77,0.57 -0.56,0.16 -1.13,0.29 -1.7,0.41 -0.57,0.15 -1.16,0.29 -1.78,0.42 -0.64,0.13 -1.25,0.24 -1.82,0.32 -2.21,0.33 -4.79,0.59 -7.73,0.8 -2.87,0.2 -6.17,0.36 -9.88,0.46l-0.04 0c-11.14,0.22 -21.96,0.75 -32.43,1.58 -10.48,0.83 -20.56,1.97 -30.25,3.4 -6.78,1.01 -12.68,2.17 -17.68,3.48 -4.98,1.3 -9.08,2.76 -12.31,4.36 -3.26,1.61 -6.39,3.36 -9.37,5.26 -2.98,1.89 -5.8,3.9 -8.45,6.04 -2.64,2.12 -5.1,4.41 -7.37,6.86 -2.29,2.46 -4.38,5.07 -6.27,7.83 -1.84,2.71 -3.15,5.27 -3.9,7.67 -0.73,2.32 -0.95,4.49 -0.65,6.51 0.25,1.71 0.91,3.25 1.95,4.6 1.08,1.4 2.6,2.63 4.54,3.68 1.99,1.07 4.16,1.77 6.51,2.1 2.39,0.34 4.99,0.3 7.8,-0.12 5.47,-0.81 10.69,-2.35 15.66,-4.62 4.99,-2.27 9.73,-5.29 14.24,-9.03 4.47,-3.71 7.69,-7.28 9.66,-10.69 1.88,-3.25 2.6,-6.36 2.16,-9.32 -0.14,-0.96 -0.48,-1.81 -1,-2.56 -0.55,-0.78 -1.3,-1.46 -2.26,-2.05 -0.99,-0.58 -2.13,-0.96 -3.43,-1.15 -1.34,-0.19 -2.85,-0.16 -4.53,0.08 -6.37,0.94 -12.55,3.49 -18.52,7.65 -6.04,4.2 -11.88,10.03 -17.5,17.5 -0.45,0.6 -1.25,0.79 -1.91,0.5l-0.67 -0.23c-0.83,-0.28 -1.27,-1.19 -0.98,-2.01 0.05,-0.13 0.11,-0.25 0.18,-0.36 2.45,-3.82 5.16,-7.27 8.13,-10.34 3,-3.1 6.27,-5.83 9.8,-8.19 3.54,-2.36 7.02,-4.25 10.45,-5.68 3.47,-1.44 6.89,-2.41 10.28,-2.91 2.26,-0.33 4.31,-0.35 6.15,-0.05 1.91,0.31 3.58,0.96 5.01,1.95l0.14 0.1c1.33,0.96 2.39,2.01 3.17,3.14 0.85,1.23 1.37,2.55 1.58,3.97 0.43,2.93 0.06,5.9 -1.13,8.92 -1.15,2.93 -3.07,5.89 -5.75,8.89 -2.63,2.93 -5.53,5.56 -8.7,7.91 -3.16,2.34 -6.58,4.39 -10.27,6.15 -3.69,1.76 -7.19,3.2 -10.49,4.29 -3.33,1.1 -6.51,1.88 -9.51,2.33 -3.08,0.46 -5.98,0.48 -8.72,0.08l-0.06 -0.01c-2.73,-0.41 -5.3,-1.24 -7.7,-2.49 -2.45,-1.3 -4.38,-2.81 -5.79,-4.55 -1.46,-1.8 -2.35,-3.82 -2.68,-6.06 -0.72,-4.85 0.58,-10.11 3.91,-15.76 3.21,-5.47 8.34,-11.33 15.38,-17.58 7.06,-6.29 16.65,-11.64 28.73,-16.04 12,-4.37 26.48,-7.81 43.44,-10.32 5.9,-0.87 12.04,-1.66 18.39,-2.35 6.35,-0.69 12.85,-1.29 19.49,-1.79 6.78,-0.51 12.48,-0.99 17.11,-1.44 4.68,-0.45 8.47,-0.89 11.35,-1.32 0.36,-0.05 0.72,-0.11 1.05,-0.18 0.31,-0.06 0.65,-0.13 1.02,-0.22l0.2 -0.03c0.37,-0.06 0.73,-0.12 1.06,-0.18l0.06 -0.01c0.29,-0.06 0.63,-0.13 0.99,-0.21l0.07 -0.02c0.37,-0.09 0.71,-0.17 1.01,-0.26 0.29,-0.08 0.66,-0.19 1.09,-0.33l0.17 -0.04c0.33,-0.08 0.62,-0.16 0.89,-0.24 0.32,-0.1 0.58,-0.18 0.78,-0.26 0.87,-0.32 1.74,-0.65 2.6,-0.99 0.24,-0.1 0.5,-0.22 0.77,-0.35l0.88 -0.43 0.94 -0.5c0.9,-0.48 1.46,-0.78 1.69,-0.91 0.27,-0.21 0.61,-0.34 0.98,-0.34l0 0.01 0.11 0zm-60.87 128.02c1.49,1.29 3.6,3.21 4.73,4.33 0.29,0.29 0.53,0.54 0.7,0.74 0.49,0.28 0.74,0.65 0.8,1.03 1.33,1.93 0.69,2.62 -2.34,1.75 -0.21,-0.06 -0.47,-0.19 -0.78,-0.39l-3.56 -2.36c-0.2,1.35 -0.43,2.58 -0.67,3.7 -0.43,2 -0.92,3.66 -1.47,4.99 -0.55,1.32 -1.18,2.5 -1.89,3.54 -0.73,1.07 -1.56,2 -2.47,2.78 -1.07,0.91 -2.14,1.57 -3.21,1.97 -1.15,0.43 -2.29,0.56 -3.42,0.39l-0.13 -0.02c-0.99,-0.17 -1.88,-0.46 -2.66,-0.87 -0.85,-0.44 -1.58,-1.02 -2.19,-1.73 -1,-1.17 -1.71,-2.51 -2.14,-4.02 -0.41,-1.47 -0.55,-3.09 -0.43,-4.87 0.13,-1.73 0.44,-3.35 0.96,-4.86 0.51,-1.52 1.22,-2.92 2.13,-4.2l5.63 -7.87c-1.01,-1.38 -1.77,-2.84 -2.26,-4.36 -0.62,-1.9 -0.84,-3.9 -0.66,-5.98l0 -0.01c0.18,-2.05 0.61,-3.86 1.29,-5.43 0.71,-1.62 1.68,-2.96 2.92,-4.02 0.61,-0.52 1.22,-0.91 1.85,-1.17 0.67,-0.28 1.35,-0.42 2.04,-0.41 0.71,0.01 1.38,0.16 2,0.46 0.6,0.29 1.14,0.71 1.62,1.28 0.81,0.94 1.35,2.07 1.64,3.39 0.27,1.24 0.3,2.64 0.11,4.2l-0.02 0.14c-0.23,1.54 -0.87,3.37 -1.95,5.49 -0.91,1.79 -2.12,3.8 -3.66,6.04 0.63,0.62 1.29,1.24 2,1.85 0.39,0.34 0.8,0.67 1.22,1.01 0.27,-2.4 0.54,-4.5 0.83,-6.3 0.4,-2.54 0.84,-4.51 1.29,-5.92 0.47,-1.45 1.02,-2.71 1.64,-3.76 0.65,-1.11 1.39,-2.03 2.23,-2.75 0.68,-0.58 1.38,-1.02 2.11,-1.33 0.76,-0.32 1.54,-0.49 2.34,-0.5 0.79,-0.01 1.5,0.1 2.12,0.34 0.69,0.26 1.28,0.67 1.75,1.22 0.36,0.42 0.61,0.88 0.76,1.4l0.02 0.09c0.12,0.47 0.16,0.95 0.13,1.46l-0.02 0.17c-0.06,0.49 -0.18,0.94 -0.37,1.34 -0.23,0.49 -0.54,0.91 -0.93,1.25 -0.38,0.32 -0.79,0.55 -1.23,0.7 -0.45,0.15 -0.92,0.2 -1.4,0.17l-0.01 0c-0.49,-0.04 -0.96,-0.17 -1.39,-0.38 -0.43,-0.22 -0.81,-0.52 -1.14,-0.91 -0.42,-0.49 -0.7,-1.02 -0.83,-1.59l-0.01 -0.05c-0.2,0.21 -0.38,0.43 -0.55,0.66 -0.32,0.44 -0.61,0.93 -0.85,1.47 -0.24,0.55 -0.48,1.35 -0.71,2.38l-0.01 0.06c-0.24,1.07 -0.47,2.41 -0.69,4l-0.01 0.06c-0.21,1.6 -0.39,3.33 -0.52,5.2 -0.11,1.63 -0.19,3.32 -0.23,5.05zm-10.05 -9.3c0.9,-1.24 1.67,-2.44 2.29,-3.59 0.88,-1.61 1.49,-3.14 1.84,-4.6l0.02 -0.06c0.32,-1.38 0.42,-2.55 0.29,-3.53 -0.11,-0.87 -0.41,-1.59 -0.88,-2.14 -0.28,-0.33 -0.54,-0.48 -0.79,-0.48 -0.38,0.01 -0.88,0.28 -1.49,0.81 -0.88,0.75 -1.56,1.7 -2.03,2.83 -0.49,1.19 -0.77,2.59 -0.82,4.2 -0.05,1.62 0.15,3.11 0.61,4.48 0.24,0.73 0.57,1.42 0.96,2.09zm5.38 10.54l-3.25 -2.8 -1.87 -1.57c-0.87,1.38 -1.62,2.67 -2.25,3.87 -0.82,1.58 -1.41,2.97 -1.75,4.16l-0.02 0.07c-0.33,1.17 -0.54,2.39 -0.63,3.65 -0.1,1.32 -0.08,2.68 0.06,4.07 0.15,1.41 0.37,2.57 0.64,3.49 0.24,0.79 0.5,1.36 0.8,1.71 0.16,0.19 0.33,0.32 0.52,0.4 0.2,0.09 0.45,0.14 0.72,0.14 0.29,0 0.59,-0.07 0.91,-0.2 0.34,-0.14 0.7,-0.37 1.05,-0.67 0.78,-0.67 1.49,-1.54 2.13,-2.61 0.66,-1.11 1.25,-2.44 1.75,-4 0.51,-1.55 0.86,-3.19 1.05,-4.9 0.17,-1.54 0.23,-3.14 0.15,-4.81zm81.66 28.54c-1.18,1.75 -2.33,3.63 -3.45,5.66 -1.46,2.65 -2.85,5.52 -4.18,8.64 -1.36,3.16 -2.55,6.14 -3.56,8.94 -1.01,2.79 -1.86,5.46 -2.56,8.01l-0.04 0.12c-0.68,2.49 -1.44,6.1 -2.28,10.83 -0.85,4.84 -1.77,10.76 -2.75,17.75 -1.01,7.14 -2.27,13.73 -3.77,19.8 -1.5,6.08 -3.25,11.63 -5.23,16.65l-0.04 0.1c-2,5.02 -4.57,9.92 -7.71,14.71 -3.15,4.81 -6.9,9.53 -11.23,14.16 -4.32,4.62 -8.99,8.7 -13.99,12.25 -5.01,3.55 -10.34,6.54 -16,8.98 -4.91,2.12 -9.55,3.6 -13.9,4.43 -4.39,0.83 -8.5,1 -12.33,0.5 -3.88,-0.51 -7.08,-1.57 -9.63,-3.16 -2.64,-1.65 -4.55,-3.85 -5.75,-6.62l-0.05 -0.13c-0.53,-1.25 -0.83,-2.5 -0.89,-3.73 -0.07,-1.29 0.11,-2.56 0.54,-3.8 0.44,-1.25 1.09,-2.33 1.92,-3.23 0.85,-0.91 1.88,-1.63 3.09,-2.15l0.13 -0.05c0.98,-0.41 1.95,-0.64 2.92,-0.7 1.03,-0.06 2.05,0.08 3.06,0.42l0.05 0.02c1,0.33 1.87,0.85 2.61,1.53 0.75,0.69 1.35,1.55 1.79,2.57 0.4,0.91 0.61,1.82 0.63,2.74 0.03,0.92 -0.13,1.82 -0.46,2.7l-0.05 0.11c-0.35,0.85 -0.86,1.6 -1.51,2.24l-0.01 0.01c-0.66,0.65 -1.46,1.18 -2.4,1.58 -1.05,0.45 -2.09,0.68 -3.12,0.67 -0.34,-0 -0.68,-0.03 -1.01,-0.08 0.25,0.48 0.71,1.01 1.39,1.57 0.86,0.71 2,1.43 3.42,2.16l0.02 0.01c1.36,0.72 3.01,1.17 4.94,1.38 2.01,0.21 4.31,0.14 6.9,-0.2 2.63,-0.36 5.32,-0.94 8.07,-1.73 2.72,-0.78 5.49,-1.78 8.3,-2.99 4.14,-1.79 7.99,-3.91 11.53,-6.35 3.54,-2.44 6.8,-5.22 9.75,-8.31 2.99,-3.12 5.62,-6.42 7.9,-9.89 2.28,-3.46 4.21,-7.12 5.8,-10.95 1.62,-3.88 3.22,-8.21 4.8,-13.01 1.57,-4.78 3.11,-9.98 4.62,-15.62l4.21 -15.46c1.93,-7.09 3.88,-13.69 5.84,-19.79 1.95,-6.07 3.9,-11.58 5.85,-16.51l0.05 -0.1c1.99,-4.97 4.27,-9.99 6.85,-15.05 2.41,-4.72 5.08,-9.51 8.03,-14.36 -1.69,-1.25 -3.89,-2.28 -6.59,-3.08l-0.01 -0c-3.39,-1.01 -7.56,-1.66 -12.49,-1.95 -4.93,-0.29 -10.03,0.1 -15.29,1.16 -5.28,1.07 -10.75,2.82 -16.4,5.26 -6.56,2.83 -12.71,6.27 -18.44,10.29 -5.75,4.04 -11.09,8.67 -16.03,13.9 -4.91,5.22 -9.14,10.67 -12.68,16.34 -3.53,5.66 -6.37,11.55 -8.5,17.66 -2.12,6.08 -3.31,11.57 -3.56,16.45 -0.24,4.79 0.42,9 1.98,12.62 1.03,2.39 2.53,4.4 4.49,6.01 2,1.64 4.49,2.9 7.47,3.77 3.02,0.89 5.99,1.26 8.9,1.09 2.91,-0.16 5.78,-0.86 8.62,-2.09 3.29,-1.42 6.63,-3.42 10.02,-5.98 3.42,-2.59 6.88,-5.75 10.39,-9.49 3.5,-3.75 6.65,-7.78 9.46,-12.08 2.82,-4.31 5.3,-8.91 7.44,-13.8l0 -0.01c2.11,-4.81 3.39,-9.1 3.83,-12.87 0.43,-3.66 0.07,-6.81 -1.08,-9.46 -0.72,-1.67 -1.67,-3.01 -2.83,-4.01 -1.14,-0.98 -2.52,-1.66 -4.12,-2.02 -1.71,-0.37 -3.48,-0.44 -5.31,-0.21 -1.86,0.24 -3.8,0.8 -5.84,1.68 -4.43,1.91 -8.58,4.65 -12.46,8.23 -3.9,3.59 -7.53,8.03 -10.88,13.32l-0.08 0.11c-3.34,5.26 -6.18,10.97 -8.54,17.13 -2.38,6.21 -4.25,12.85 -5.61,19.94 -0.16,0.86 -1,1.43 -1.86,1.26l-0.65 -0.12c-0.83,-0.15 -1.39,-0.92 -1.29,-1.75 0.65,-5.33 2.04,-10.94 4.15,-16.82 2.09,-5.85 4.91,-11.99 8.44,-18.42 3.57,-6.49 7.6,-11.96 12.09,-16.39 4.52,-4.46 9.49,-7.86 14.93,-10.21 2.75,-1.19 5.35,-1.92 7.8,-2.19 2.5,-0.28 4.83,-0.07 6.99,0.61 2.18,0.67 4.04,1.7 5.59,3.06 1.56,1.37 2.77,3.08 3.65,5.11 1.97,4.55 2.45,9.88 1.46,15.99 -0.97,5.97 -3.36,12.68 -7.15,20.15l-0.07 0.12c-3.81,7.42 -8.45,13.76 -13.9,19.02 -5.51,5.31 -11.84,9.51 -19.02,12.61 -4.48,1.93 -8.72,3.12 -12.73,3.56 -4.06,0.45 -7.87,0.13 -11.44,-0.96 -3.54,-1.08 -6.52,-2.62 -8.93,-4.6 -2.46,-2.03 -4.32,-4.5 -5.58,-7.42 -1.87,-4.33 -2.67,-9.24 -2.38,-14.74 0.28,-5.4 1.6,-11.37 3.96,-17.9 2.36,-6.49 5.34,-12.66 8.95,-18.52l0.07 -0.11c3.6,-5.83 7.82,-11.36 12.64,-16.6l0.09 -0.09c4.86,-5.24 10.2,-9.9 16,-13.98 5.85,-4.11 12.18,-7.64 19,-10.59 5.96,-2.57 11.75,-4.46 17.34,-5.64 5.6,-1.19 11.02,-1.66 16.23,-1.44 5.19,0.23 9.7,0.88 13.53,1.95 3.22,0.9 5.96,2.1 8.25,3.59 2.49,-4.11 4.92,-7.88 7.28,-11.33 2.66,-3.88 5.23,-7.34 7.71,-10.38 0.55,-0.68 1.56,-0.78 2.24,-0.22 0.1,0.08 0.19,0.18 0.26,0.28l0.3 0.34c0.51,0.57 0.53,1.4 0.1,1.99l-7.19 10.26c-1.03,1.49 -2.23,3.29 -3.59,5.4 -1.19,1.83 -2.52,3.92 -3.99,6.25 6.14,7.08 13.62,17.12 17.58,27.61 2.99,7.92 3.98,16.1 0.93,23.54 -1.47,3.59 -3.4,6.65 -5.79,9.18 -2.4,2.54 -5.25,4.53 -8.55,5.95 -2.99,1.29 -5.54,1.67 -7.66,1.15 -2.28,-0.56 -3.97,-2.1 -5.05,-4.6 -0.97,-2.24 -1.12,-4.75 -0.46,-7.53l0.04 -0.15c0.64,-2.58 1.99,-5.39 4.06,-8.44 2.07,-3.05 4.28,-5.62 6.62,-7.71 2.39,-2.13 4.93,-3.78 7.62,-4.94 0.6,-0.26 1.28,-0.11 1.73,0.32 -0.23,-3.22 -0.84,-6.49 -1.76,-9.69 -2.31,-8.08 -6.55,-15.7 -11.58,-21.03zm13.45 33.58c-0.09,0.08 -0.19,0.15 -0.3,0.21 -2.73,1.59 -5.18,3.41 -7.33,5.46 -2.16,2.06 -4.04,4.34 -5.63,6.85 -1.55,2.46 -2.54,4.68 -2.96,6.66 -0.39,1.84 -0.28,3.46 0.32,4.86 0.42,0.97 0.91,1.57 1.47,1.8 0.53,0.22 1.23,0.15 2.11,-0.22l0.12 -0.05c1.95,-0.86 3.78,-2.49 5.49,-4.9 1.82,-2.56 3.5,-5.96 5.02,-10.21 1.17,-3.26 1.7,-6.8 1.69,-10.47zm-125.86 -103.37c-3.92,10.83 -8.58,20.58 -13.96,29.24 -5.54,8.91 -11.86,16.68 -18.96,23.28 -7.11,6.62 -15.14,11.98 -24.06,16.09 -8.92,4.1 -18.72,6.94 -29.39,8.52 -4.8,0.71 -9.06,0.92 -12.79,0.65 -3.82,-0.29 -7.1,-1.09 -9.85,-2.41l-0.09 -0.05c-2.72,-1.35 -4.86,-2.97 -6.43,-4.89 -1.63,-1.99 -2.64,-4.28 -3.02,-6.87 -0.22,-1.49 -0.18,-2.9 0.1,-4.25 0.29,-1.36 0.83,-2.64 1.61,-3.85l0.02 -0.02c0.81,-1.2 1.75,-2.17 2.84,-2.89 1.1,-0.73 2.32,-1.19 3.66,-1.39 1,-0.15 1.95,-0.13 2.87,0.07l0.07 0.02c0.89,0.2 1.73,0.57 2.52,1.1 0.83,0.53 1.49,1.19 1.99,1.95 0.51,0.78 0.84,1.64 0.98,2.58 0.14,0.96 0.09,1.91 -0.16,2.82 -0.24,0.9 -0.67,1.76 -1.29,2.56l-0.01 0.02c-0.61,0.78 -1.28,1.41 -2.03,1.88 -0.78,0.5 -1.62,0.82 -2.52,0.95 -0.69,0.1 -1.42,0.09 -2.17,-0.04 -0.69,-0.12 -1.41,-0.34 -2.15,-0.67 -0.77,-0.32 -1.43,-0.7 -1.98,-1.14l0.03 0.26c0.25,1.71 0.97,3.25 2.16,4.58 1.24,1.4 2.99,2.61 5.27,3.62 2.32,1.05 5.22,1.66 8.71,1.85 3.58,0.19 7.78,-0.07 12.6,-0.78 9.03,-1.34 17.21,-3.91 24.55,-7.71 7.32,-3.8 13.82,-8.83 19.51,-15.09l0.08 -0.08c5.7,-6.31 11.21,-13.65 16.52,-22.03 4.91,-7.76 9.64,-16.39 14.19,-25.89 -0.54,0.06 -0.97,0.11 -1.28,0.15 -2.24,0.33 -4.83,0.92 -7.75,1.77 -2.9,0.84 -6.18,1.96 -9.83,3.36l-0.08 0.03c-3.59,1.36 -7.16,2.94 -10.7,4.73 -3.59,1.82 -7.14,3.84 -10.63,6.07 -0.71,0.45 -1.65,0.27 -2.14,-0.41l-0.49 -0.67c-0.51,-0.71 -0.36,-1.7 0.35,-2.22 0.07,-0.05 0.15,-0.1 0.23,-0.14 7.67,-4.64 15.02,-8.35 22.05,-11.15 7.11,-2.83 13.9,-4.72 20.37,-5.67 0.55,-0.08 1.08,-0.15 1.58,-0.21l0.4 -0.04c5.85,-12.04 12.66,-23.47 20.42,-34.28 7.94,-11.06 16.87,-21.47 26.8,-31.22 0.62,-0.61 1.63,-0.61 2.24,0.02 0.1,0.1 0.18,0.21 0.24,0.32l0.26 0.45c0.38,0.66 0.24,1.47 -0.3,1.97 -4.18,4.46 -7.76,8.43 -10.75,11.87 -3,3.46 -5.34,6.34 -7.03,8.62 -1.65,2.25 -3.52,5.11 -5.6,8.56 -2.09,3.48 -4.39,7.54 -6.88,12.16 -2.5,4.64 -4.6,8.79 -6.31,12.46 -1.2,2.58 -2.2,4.92 -3,7.01 1.39,-0.25 2.73,-0.54 4.02,-0.85 1.9,-0.46 3.74,-1 5.5,-1.6 2.84,-5.43 5.49,-9.61 7.93,-12.56 2.72,-3.27 5.28,-5.08 7.68,-5.44 1.54,-0.23 2.8,-0.09 3.77,0.41l0.1 0.06c1.09,0.6 1.74,1.58 1.94,2.95 0.22,1.49 -0.12,3.09 -1.02,4.81 -0.81,1.54 -2.09,3.19 -3.86,4.96 -1.74,1.77 -3.76,3.32 -6.03,4.65 -2.09,1.22 -4.38,2.27 -6.88,3.12 -0.84,1.97 -1.52,4.23 -2.03,6.76 -0.58,2.84 -0.95,6.03 -1.13,9.59 -0.04,0.78 -0.63,1.4 -1.38,1.5l-7 1.13c-0.87,0.14 -1.68,-0.45 -1.81,-1.32 -0.05,-0.3 -0.01,-0.59 0.09,-0.84 0.71,-1.75 1.28,-3.13 1.71,-4.14 0.47,-1.09 0.8,-1.8 1,-2.14 0.14,-0.25 0.72,-1.39 1.73,-3.44l2.48 -5.06c-1.43,0.37 -2.68,0.69 -3.73,0.95 -1.83,0.45 -3.08,0.73 -3.74,0.83l-0.93 0.14zm17.22 -9.43c0.69,-0.31 1.36,-0.65 2.02,-1.02 1.75,-0.98 3.42,-2.19 4.99,-3.61 1.55,-1.42 2.67,-2.7 3.36,-3.86 0.57,-0.96 0.81,-1.79 0.71,-2.46 -0.03,-0.19 -0.07,-0.31 -0.12,-0.34 -0.2,-0.11 -0.6,-0.12 -1.19,-0.04 -0.63,0.09 -1.37,0.47 -2.21,1.13 -0.96,0.75 -2.02,1.85 -3.18,3.29 -1.18,1.51 -2.26,3.09 -3.23,4.78 -0.4,0.69 -0.78,1.4 -1.15,2.14zm367.17 362.02c6.54,-9.48 25.91,-20.11 31.55,-3.02 12.75,38.67 -59.71,53.42 -86.72,56.75 47.77,-26.25 27.82,-14.09 55.17,-53.73zm128.26 -155.87c27.39,16.79 36.36,51.55 3.71,70.54 -14.54,8.45 -36.73,7.57 -44.61,13.53 -14.2,10.74 -2.98,29.45 -20.21,38.11 -30.04,15.1 -54.84,-27.66 1.1,-45.19 -1.9,-1.99 -1.13,-1.32 -3.86,-3.15 -7.42,-4.99 -21.81,-9.57 -19.94,-28.49 1.43,-14.44 20.23,-28.29 29.75,-11.97 -3.25,10.41 -9.36,8.81 -15.78,16.91 -4.79,15.39 27.68,24.02 49.69,19.73 46.48,-9.06 43.76,-58.65 -5.9,-71.11 -34.45,-8.64 -83.7,4.16 -108.16,30.68 -34.71,37.64 -6.95,68.46 -2.27,81.65 18.02,50.76 -25.2,82.42 -66.63,97.76 5.3,6.09 3.34,2.89 10.13,7.29 3.02,1.96 6.59,5.14 8.45,6.97 4.71,4.62 8.96,10.91 8.11,19.6 -3.24,10.72 -12.6,16.72 -27.05,13 -11.75,-3.02 -13.48,-10.49 -16.03,-23.06 -5.59,-27.56 -25.25,-17.01 -52.03,-24.29 -9.77,-1.63 -17.9,-5.39 -26.03,-9.89 -9.48,-5.24 -13.17,-10.51 -21.43,-14.53 -6.41,28.01 -41.28,45.11 -63.8,60.63 -8.44,2.01 -5.84,10.88 -1.03,16.79 4.7,5.78 8.96,7.8 12.38,16.12 -1.7,23.95 -42.38,17.36 -36.58,-17.32 -7.55,2.54 -32,21.4 -36.22,26.79 -5.17,2.73 -2.95,1.74 -7.22,5.16 2.87,8.11 5.18,4.51 14.46,18.67 5.43,8.29 7.14,13 9.11,23.85l4.21 -2.82c9.38,-6.8 22.64,-13.71 32.91,-3.26l1 7.54c-13.06,7.72 -26.18,2.3 -33.27,7.73 -7.95,6.08 -3.95,16.67 -20.09,22.54 -17.01,6.18 -50.44,4.72 -48.34,-32.1l2.51 -9.84c8.13,-12.4 10.64,-20.42 22.2,-28.14 -3.65,-9.97 -1.19,-2.97 -13.9,-15.58 -6.78,-6.73 -7.2,-9.91 -12.43,-16.97 -2.96,4.05 -4.39,7.9 -7.75,11.99 -4.92,5.98 -11.91,12.37 -17.88,17.42 3.1,6.17 9.39,11.29 14.3,19.03 4.81,7.58 6.98,13.1 9.79,21.71 0.78,17.76 -1.65,24.95 -15.43,31.51 -11.48,5.47 -27.6,4.64 -37.95,-1.82 -14.52,-9.07 -6,-20.86 -23.36,-22.87 -14.21,-1.64 -35.83,-1.23 -18.88,-16.85 27.47,1.43 19.32,5.2 31.79,10.15 1.65,-9.07 5.47,-17.9 11.01,-25.38 2.15,-2.9 3.66,-4.91 6.17,-7.43 6.66,-6.69 2.49,1.03 6.99,-8.06l-2.12 -2.63c-0.26,-0.27 -0.76,-0.87 -1.07,-1.19 -7.31,-7.27 -34.56,-27.56 -41.16,-29.57 5.43,27.6 -14.81,38.18 -35.4,26.78 -4.92,-23.93 33.55,-29.21 5.86,-44.99 -12.15,-9.03 -22.82,-12.94 -34.98,-23.41 -9.27,-7.97 -18.23,-15.19 -22.37,-28.98 -0.71,-1 -1.37,-1.89 -2.2,-2.81l-2.19 -1.93c-5.62,7.14 -6.29,7.15 -14.49,12.42 -19.73,9 -37.11,15.98 -59.31,15.86 -7.87,-0.04 -12.26,-0.34 -18.38,7.35 -9.71,12.12 -2.18,28.19 -17.7,34.59 -14.23,5.87 -34.19,-1.29 -29.85,-18.3 3.99,-15.63 20.04,-18.41 27.09,-27.95 -24.2,-4.39 -51.51,-25.12 -62.72,-45.96 -27.66,-51.41 17.66,-59.46 8.4,-105.47 -7.09,-35.24 -55.37,-58.61 -87.85,-60.39 -33.08,-0.45 -61.67,5.94 -72.4,29.3 -7.07,15.38 1.23,28.43 10.66,35.3 12.13,8.84 27.37,10.29 45.33,9.26 11.61,-2.93 22.71,-6.02 24.96,-17.77 -6.16,-15.85 -16.8,-5.83 -14.95,-23.12 22.31,-12.49 44.11,23.26 13.8,40.95 -3.7,2.15 -5.75,3.57 -8.87,6.43 12.15,4.08 22.7,9.22 28.37,17.78 20.51,30.96 -30.2,41.64 -37.35,13.96 -4.82,-18.65 -1.54,-19.85 -16.29,-28.53 -32.98,-2.07 -75.67,-22.19 -55.16,-59.94 6.64,-12.23 17.65,-20.68 33.53,-26.66 46.57,-17.54 111.19,-1.41 139.22,41.06 8.16,12.38 10.13,23.36 10.26,39.81 12.08,-5.03 21.45,-14.32 37.02,-18.1 20.71,-9.72 47.39,-1.22 59.22,-20.73 11.98,-13.92 -2.22,-20.89 -15.89,-22.38 -6.87,-0.75 -14.21,-0.54 -17.41,-5.33 -4.4,-6.6 2.47,-10.44 5.88,-13.66 23.61,1.75 32.69,6.53 40.8,25.83 0.67,16.24 -2.17,16.97 -8.93,26 -3.85,3.47 -4.75,3.28 -8.25,6.64 7.66,4.8 15.58,4.48 21.66,11.59 15.88,6.17 19.2,23.58 34.12,30.01 18.65,0.89 38.81,-6.65 44.13,9.89 0.2,16.29 -32.3,18.8 -41.55,7.62l-10.99 -4.07c-0.27,-0.13 -0.84,-0.47 -1.29,-0.61 -3.18,6.71 -5.56,10.85 -7.86,16.31 -4.72,2.58 -7.38,6.49 -15.17,9.77 -36.96,16.99 -96.41,-1.04 -74.08,-37.87 5.17,-8.54 18.99,-10.32 24.95,0.6 -0.71,12.13 -5.85,8.01 -11.65,16.41 -5.12,33.65 61.75,23.83 72.56,-7.27 7.16,-20.59 -28.14,-42.92 -48.26,-45.34 -25.02,-3.02 -53.64,7.25 -72.76,23.58 -10.21,8.71 -13.9,14.68 -21.35,28.75 -4.49,17.88 -5.34,29.78 3.33,46.29 3.52,6.7 8.04,12.2 12.01,17.09 8.89,10.95 18.98,17.42 32.15,22.21 6.7,2.44 14.14,4.45 21.2,5.56 14.9,2.33 26.1,1.8 38.72,0 16.55,-2.35 48.37,-13.83 56.51,-27.82 3.71,-5.71 6.68,-13.46 10.66,-20.19 21.62,-36.61 74.49,-42.6 111.87,-29.77 14.1,4.84 20.79,9.67 29.82,18.68 18.26,18.21 17.43,46.49 -2.72,62.65 -10.46,8.39 -21.12,7.74 -28.05,12.69 -2.93,5.32 -2.42,8.5 -0.03,12.35 0.46,0.74 0.99,1.51 1.58,2.33 -0.43,2.73 -1.29,4.88 -2.42,6.51 -5.76,8.32 -18.58,3.16 -18,-7.69 0.48,-8.92 4.34,-6.93 8.54,-14.49 -14.4,-0.02 -21.04,-3.15 -30.97,-8.45 -8.93,-9.09 -14.92,-14.87 -12.43,-33.87 3.24,-9.41 5.87,-11.66 11.14,-16.4 10.31,-5.05 19.19,-9.95 28.25,1.7 -0.24,16.53 -14.71,10.12 -22.66,20.56 -3.27,3.35 -4.97,4.24 -3.4,11.67 7.33,34.57 99.99,13.26 67.93,-38.49 -5.35,-8.63 -13.21,-14.58 -24.85,-19.87 -23.34,-10.61 -51.68,-9.84 -76.07,-0.14 -12.21,4.09 -22.52,15.09 -27.31,24.87 -13.77,33.59 19.87,54.98 38.73,66.33 20.39,9.62 48.75,29.63 68.11,43.28 6.26,4.41 15.65,13.74 21.03,16.06 5.78,-3.01 14.92,-11.9 18,-18.59 -0.76,-12.68 -6.61,-9.94 -15.66,-15.13 -15.78,-9.06 2.1,-32.73 30.63,0.65 7.72,-12.04 23.9,-26.43 36.43,-11.34 1.92,12.33 -9.22,10.28 -16.9,16.71 -14.67,7.38 8.15,25.56 15.9,27.72 6.73,-7.73 9.43,-9.47 18.45,-16.26 18.25,-13.73 36.44,-23.5 55.54,-35.58 6.5,-4.11 10.28,-5.99 17.16,-10.04 26.13,-15.36 52.8,-43.93 28.32,-73.89 -16.13,-19.74 -52.34,-25.15 -76.54,-21.06 -19.84,3.36 -41.56,13.74 -48.84,33.74 -4.74,11.05 -3.51,23.25 3.62,31.49 13.75,15.89 55.59,26.3 65.9,2.46 15.85,-25.46 -38.33,-15.96 -19.96,-40.64 24.28,-4.13 36.14,11.22 35.2,34.63 -8.17,18.9 -19.33,26.51 -44.01,27.6l3.44 2.8c2.39,5.27 3.79,4.4 5.5,12.11 -3.88,14.99 -16.59,14.55 -19.74,6.64 -2.34,-5.89 3.72,-8.4 2.23,-20l-8.45 -3.48c-40.04,-8.03 -47.19,-48.38 -22.08,-74.94 15.26,-10.87 25.73,-16.27 44.4,-19.75 39.27,-7.33 80.51,2.81 99.25,41.39 6.34,13.06 8.02,17.3 21.28,25.31 21.38,12.9 48.76,18.11 73.48,15.84 20.32,-1.86 42.5,-9.94 56.87,-24.95 6.02,-4.72 14.36,-18.6 17.3,-25.18 8.27,-18.57 5.55,-40.64 -6.55,-56.43 -18.42,-24.03 -50.55,-39.71 -80.78,-38.24 -25.59,1.25 -44.94,14.21 -50.75,32.17 -10.01,17.82 9.31,32.99 22.62,37.55 8.93,3.06 19.34,4.93 29.87,3.24 11.72,-1.88 17.39,-5.22 19.96,-14.84 -5.51,-14.42 -21.7,-12.81 -10.36,-27.41 13.94,-3.26 26.96,2.52 25.55,18.21 -2.53,28.1 -32.5,36.49 -58.21,31.4 -14.41,-2.86 -38.5,-13 -39.97,-29.95 -1.72,-1.37 -4.07,-2.05 -5.75,-3.08 -12.66,17.77 -69.58,13.54 -45.28,-11.06 19.05,-3.67 28.2,2.32 46.72,-4.79 0.13,-0.34 0.43,-0.8 0.52,-0.96 5.7,-9.45 13.69,-18.27 22.89,-24.5 7.11,-4.81 17.63,-7.67 24.49,-12.59 -12.17,-13.01 -26,-15.78 -14,-39.67 7.37,-14.65 34.36,-27.24 43.9,-11.87 1.35,20.16 -25.65,3.79 -36.1,20.02 -7.42,8.25 5.21,19.38 9.64,22.15 8.44,5.28 15.26,7.03 27.25,7.98 24.44,1.95 40,10.16 59.85,22.75 1.87,0.33 1.18,-10.41 1.95,-15.47 0.89,-5.84 2.93,-11.65 5.25,-16.57 4.87,-10.32 13.16,-17.79 18.48,-24 40.65,-26.41 91.13,-46.91 138.16,-18.07zm-290.91 130.84c6.2,10.67 27.39,18.28 46.1,18.52 18.9,0.24 44.6,-13.82 53.71,3.45 2.92,32 -99.52,24.51 -108.09,-28.94 3.15,2.67 0.79,0.98 3.28,3.09 4.14,3.52 0.3,1.03 5.01,3.87zm-595.72 17.18c20.02,-19.81 37.94,27.41 42.23,32.96 14.62,18.9 24.12,18.71 41.64,28.64 -16.24,0.43 -33.12,-4.45 -46.28,-10.46 -12.99,-5.93 -56.91,-32.02 -37.59,-51.13zm96.45 -3.02c11.41,0.47 15.43,-1.05 28.42,1.96 24.18,5.6 67.37,-2.74 71.74,-22.77 0.55,0.39 3.69,-1.03 1.21,8.13 -4.36,16.14 -27.33,31.09 -45.71,35.99 -15.96,4.25 -48.69,5.75 -58.35,-6 -5.55,-6.75 -0.77,-11.84 2.69,-17.32zm147.47 86.46c7.15,4.54 7.58,3.57 11.36,9.94 3.85,22.49 -54.68,16.06 -39.5,-47.81 10.76,13.41 7.98,25.07 28.14,37.87zm287.36 17.45c-1.41,-21.82 27.42,-10.18 38.83,-54.7 16.83,28.03 -9.92,70.52 -38.83,54.7zm1.74 -53.75c-4.52,19.61 -26.58,27.78 -49.42,27.15 5.38,-4.65 6.11,-3.63 12.81,-6.56 13.23,-5.79 14.06,-14.96 16.6,-24.95 5.05,-19.88 23.38,-10.24 20.02,4.35zm-273.63 -14.85c28.07,1.46 4.84,17.56 26.55,31.82 3.63,2.92 4.53,3.75 8.73,5.6l8.28 4.48 -18.5 -1.29c-4.76,-1.67 -9.78,-3.34 -14.27,-6.1 -14.26,-8.77 -22.39,-19.34 -10.8,-34.51zm81.99 146.69c-4.66,15.32 -5.09,27.71 9.23,32.39 14.79,4.83 26.08,-0.95 30.1,-11.68 5.61,-15.47 -11.44,-38.84 -20.15,-46.68 -7.9,3.14 -16.64,16.89 -19.18,25.98zm104.45 24.03c8.59,-12.09 -6.45,-43.94 -19.33,-49.76 -6.4,6.16 -14.27,16.69 -17.47,25.79 -6.26,12.96 -5.47,24.52 5.81,30.32 11.8,6.07 26.97,4.21 30.99,-6.34zm313.13 -777.39c6.54,9.48 25.91,20.11 31.55,3.02 12.75,-38.67 -59.71,-53.42 -86.72,-56.75 47.77,26.25 27.82,14.09 55.17,53.73zm128.26 155.87c27.39,-16.79 36.36,-51.55 3.71,-70.54 -14.54,-8.45 -36.73,-7.57 -44.61,-13.53 -14.2,-10.74 -2.98,-29.45 -20.21,-38.11 -30.04,-15.1 -54.84,27.66 1.1,45.19 -1.9,1.99 -1.13,1.32 -3.86,3.16 -7.42,4.99 -21.8,9.57 -19.94,28.49 1.43,14.44 20.23,28.29 29.75,11.97 -3.25,-10.41 -9.36,-8.81 -15.78,-16.91 -4.79,-15.39 27.68,-24.02 49.69,-19.73 46.48,9.05 43.76,58.65 -5.9,71.11 -34.45,8.65 -83.7,-4.16 -108.16,-30.68 -34.71,-37.64 -6.95,-68.46 -2.27,-81.65 18.02,-50.76 -25.2,-82.42 -66.63,-97.76 5.3,-6.09 3.35,-2.89 10.13,-7.29 3.02,-1.97 6.59,-5.14 8.45,-6.97 4.71,-4.62 8.96,-10.91 8.11,-19.6 -3.24,-10.72 -12.6,-16.72 -27.05,-13 -11.75,3.02 -13.48,10.49 -16.03,23.06 -5.59,27.56 -25.25,17.01 -52.03,24.29 -9.77,1.63 -17.9,5.39 -26.03,9.89 -9.48,5.24 -13.17,10.51 -21.43,14.53 -6.41,-28.01 -41.28,-45.11 -63.79,-60.63 -8.44,-2.01 -5.84,-10.88 -1.03,-16.79 4.7,-5.78 8.96,-7.8 12.38,-16.12 -1.7,-23.95 -42.38,-17.36 -36.58,17.32 -7.55,-2.54 -32,-21.4 -36.22,-26.79 -5.17,-2.73 -2.95,-1.74 -7.22,-5.16 2.87,-8.11 5.18,-4.51 14.46,-18.67 5.43,-8.29 7.14,-12.99 9.11,-23.85l4.21 2.82c9.38,6.8 22.64,13.71 32.91,3.26l1 -7.54c-13.06,-7.72 -26.18,-2.3 -33.27,-7.73 -7.94,-6.08 -3.95,-16.67 -20.09,-22.54 -17.01,-6.18 -50.44,-4.72 -48.34,32.1l2.51 9.84c8.13,12.4 10.64,20.42 22.2,28.14 -3.65,9.97 -1.19,2.97 -13.9,15.58 -6.78,6.73 -7.2,9.91 -12.43,16.97 -2.96,-4.05 -4.39,-7.9 -7.75,-11.99 -4.92,-5.98 -11.91,-12.38 -17.88,-17.42 3.1,-6.17 9.39,-11.29 14.3,-19.03 4.81,-7.58 6.98,-13.1 9.79,-21.71 0.78,-17.76 -1.65,-24.95 -15.43,-31.51 -11.48,-5.47 -27.59,-4.64 -37.95,1.82 -14.52,9.07 -6,20.86 -23.36,22.87 -14.21,1.64 -35.83,1.23 -18.88,16.85 27.47,-1.43 19.32,-5.2 31.79,-10.15 1.65,9.07 5.47,17.91 11.01,25.38 2.15,2.9 3.66,4.91 6.17,7.43 6.66,6.69 2.49,-1.03 6.99,8.06l-2.12 2.63c-0.26,0.27 -0.76,0.88 -1.07,1.19 -7.31,7.27 -34.56,27.56 -41.16,29.57 5.43,-27.6 -14.81,-38.18 -35.4,-26.78 -4.92,23.93 33.55,29.21 5.86,44.99 -12.15,9.03 -22.82,12.94 -34.98,23.41 -9.27,7.97 -18.23,15.19 -22.37,28.98 -0.71,1 -1.37,1.89 -2.2,2.81l-2.19 1.93c-5.62,-7.14 -6.29,-7.15 -14.49,-12.42 -19.73,-9 -37.11,-15.98 -59.31,-15.86 -7.86,0.04 -12.26,0.34 -18.38,-7.35 -9.71,-12.12 -2.18,-28.19 -17.7,-34.59 -14.23,-5.87 -34.19,1.29 -29.85,18.3 3.99,15.63 20.04,18.41 27.09,27.96 -24.2,4.39 -51.51,25.12 -62.73,45.96 -27.66,51.41 17.66,59.46 8.4,105.47 -7.09,35.24 -55.37,58.61 -87.84,60.39 -33.08,0.45 -61.67,-5.94 -72.4,-29.3 -7.07,-15.38 1.24,-28.43 10.66,-35.3 12.13,-8.84 27.37,-10.29 45.33,-9.26 11.61,2.93 22.71,6.02 24.96,17.77 -6.16,15.85 -16.8,5.83 -14.95,23.12 22.31,12.49 44.11,-23.26 13.8,-40.95 -3.7,-2.15 -5.75,-3.57 -8.87,-6.43 12.15,-4.08 22.7,-9.22 28.37,-17.78 20.51,-30.96 -30.2,-41.64 -37.35,-13.96 -4.82,18.64 -1.54,19.85 -16.29,28.53 -32.98,2.07 -75.67,22.19 -55.16,59.94 6.64,12.23 17.65,20.68 33.53,26.66 46.57,17.54 111.19,1.41 139.22,-41.06 8.16,-12.38 10.13,-23.36 10.26,-39.81 12.08,5.03 21.45,14.32 37.02,18.1 20.71,9.72 47.39,1.23 59.22,20.73 11.98,13.92 -2.22,20.89 -15.89,22.38 -6.87,0.75 -14.21,0.54 -17.41,5.33 -4.4,6.6 2.47,10.44 5.89,13.66 23.61,-1.75 32.69,-6.53 40.8,-25.83 0.67,-16.24 -2.17,-16.97 -8.93,-26 -3.85,-3.47 -4.75,-3.28 -8.25,-6.64 7.66,-4.8 15.58,-4.48 21.66,-11.59 15.88,-6.17 19.2,-23.58 34.12,-30.01 18.65,-0.89 38.81,6.65 44.13,-9.89 0.2,-16.29 -32.3,-18.8 -41.55,-7.62l-10.99 4.07c-0.27,0.13 -0.84,0.47 -1.29,0.61 -3.18,-6.71 -5.56,-10.85 -7.86,-16.31 -4.72,-2.58 -7.38,-6.49 -15.17,-9.77 -36.96,-16.99 -96.41,1.04 -74.08,37.87 5.17,8.54 18.99,10.32 24.95,-0.6 -0.71,-12.13 -5.85,-8.01 -11.66,-16.41 -5.11,-33.65 61.75,-23.83 72.56,7.27 7.16,20.59 -28.14,42.92 -48.26,45.34 -25.02,3.02 -53.64,-7.25 -72.76,-23.58 -10.21,-8.71 -13.9,-14.68 -21.35,-28.75 -4.49,-17.88 -5.34,-29.77 3.33,-46.29 3.52,-6.7 8.04,-12.2 12.01,-17.09 8.89,-10.95 18.98,-17.42 32.15,-22.21 6.7,-2.44 14.14,-4.45 21.2,-5.56 14.9,-2.33 26.1,-1.8 38.72,-0 16.55,2.36 48.37,13.83 56.51,27.82 3.71,5.71 6.68,13.46 10.66,20.19 21.62,36.61 74.49,42.6 111.87,29.77 14.1,-4.84 20.79,-9.67 29.82,-18.68 18.26,-18.21 17.43,-46.49 -2.72,-62.65 -10.46,-8.39 -21.12,-7.74 -28.05,-12.69 -2.93,-5.32 -2.42,-8.5 -0.03,-12.35 0.46,-0.74 0.99,-1.51 1.58,-2.33 -0.43,-2.73 -1.29,-4.88 -2.42,-6.51 -5.76,-8.32 -18.58,-3.16 -18,7.69 0.48,8.92 4.35,6.93 8.54,14.49 -14.4,0.02 -21.04,3.15 -30.97,8.45 -8.93,9.09 -14.92,14.87 -12.44,33.87 3.25,9.41 5.87,11.66 11.14,16.4 10.31,5.05 19.19,9.95 28.25,-1.7 -0.24,-16.53 -14.71,-10.12 -22.66,-20.56 -3.27,-3.35 -4.97,-4.24 -3.39,-11.67 7.33,-34.57 99.99,-13.26 67.93,38.49 -5.35,8.63 -13.21,14.58 -24.85,19.87 -23.34,10.61 -51.68,9.84 -76.07,0.14 -12.21,-4.09 -22.52,-15.09 -27.31,-24.87 -13.77,-33.59 19.87,-54.98 38.73,-66.33 20.39,-9.62 48.75,-29.63 68.11,-43.28 6.26,-4.41 15.65,-13.74 21.03,-16.06 5.78,3.01 14.92,11.9 18,18.59 -0.76,12.68 -6.61,9.93 -15.66,15.13 -15.78,9.06 2.1,32.73 30.63,-0.65 7.72,12.04 23.9,26.43 36.43,11.34 1.92,-12.33 -9.22,-10.28 -16.9,-16.71 -14.67,-7.38 8.15,-25.56 15.9,-27.72 6.73,7.73 9.43,9.47 18.45,16.26 18.25,13.73 36.44,23.5 55.54,35.58 6.5,4.11 10.28,5.99 17.16,10.04 26.13,15.36 52.8,43.93 28.32,73.89 -16.13,19.74 -52.34,25.15 -76.54,21.06 -19.84,-3.35 -41.56,-13.74 -48.84,-33.74 -4.74,-11.05 -3.51,-23.25 3.62,-31.49 13.75,-15.89 55.59,-26.3 65.9,-2.46 15.85,25.46 -38.33,15.96 -19.96,40.64 24.28,4.13 36.14,-11.22 35.2,-34.63 -8.17,-18.9 -19.33,-26.51 -44.01,-27.6l3.44 -2.81c2.39,-5.27 3.79,-4.4 5.5,-12.11 -3.88,-14.99 -16.59,-14.55 -19.74,-6.64 -2.34,5.89 3.72,8.4 2.23,20l-8.45 3.48c-40.04,8.03 -47.19,48.38 -22.08,74.94 15.26,10.86 25.73,16.27 44.4,19.75 39.27,7.33 80.51,-2.81 99.25,-41.39 6.34,-13.06 8.02,-17.3 21.28,-25.31 21.38,-12.9 48.75,-18.11 73.48,-15.84 20.32,1.86 42.5,9.94 56.87,24.95 6.02,4.71 14.37,18.6 17.3,25.18 8.27,18.57 5.55,40.64 -6.55,56.43 -18.42,24.03 -50.55,39.71 -80.78,38.24 -25.59,-1.25 -44.94,-14.21 -50.75,-32.17 -10.01,-17.82 9.31,-32.99 22.62,-37.55 8.93,-3.06 19.34,-4.92 29.87,-3.24 11.72,1.88 17.39,5.22 19.96,14.84 -5.51,14.42 -21.7,12.81 -10.36,27.41 13.94,3.26 26.96,-2.52 25.55,-18.21 -2.53,-28.1 -32.5,-36.49 -58.21,-31.4 -14.41,2.86 -38.5,13 -39.97,29.95 -1.72,1.37 -4.07,2.05 -5.75,3.08 -12.66,-17.77 -69.58,-13.54 -45.28,11.06 19.05,3.67 28.2,-2.32 46.72,4.79 0.14,0.34 0.43,0.8 0.52,0.96 5.7,9.45 13.69,18.27 22.89,24.49 7.11,4.81 17.62,7.67 24.49,12.59 -11.18,11.96 -23.78,15.27 -16.42,34.27 7.09,18.3 35.6,34.54 46.33,17.27 1.35,-20.16 -25.65,-3.79 -36.1,-20.02 -7.42,-8.25 5.21,-19.38 9.64,-22.15 8.44,-5.28 15.26,-7.03 27.25,-7.98 24.44,-1.95 40,-10.16 59.85,-22.75 1.87,-0.33 1.18,10.41 1.95,15.47 0.89,5.84 2.93,11.65 5.25,16.57 4.87,10.32 13.16,17.79 18.48,24 40.65,26.41 91.13,46.91 138.16,18.07zm-290.91 -130.84c6.2,-10.67 27.39,-18.28 46.1,-18.52 18.9,-0.24 44.6,13.82 53.71,-3.45 2.92,-32 -99.52,-24.51 -108.09,28.94 3.15,-2.67 0.79,-0.98 3.27,-3.09 4.14,-3.52 0.3,-1.03 5.01,-3.87zm-595.72 -17.18c20.02,19.81 37.94,-27.41 42.23,-32.96 14.62,-18.9 24.12,-18.71 41.64,-28.64 -16.24,-0.43 -33.12,4.46 -46.28,10.46 -12.99,5.93 -56.91,32.02 -37.59,51.14zm96.45 3.02c11.41,-0.47 15.43,1.05 28.42,-1.96 24.18,-5.6 67.37,2.74 71.74,22.77 0.55,-0.39 3.69,1.03 1.21,-8.13 -4.36,-16.14 -27.32,-31.09 -45.71,-35.99 -15.96,-4.25 -48.69,-5.75 -58.35,6 -5.55,6.75 -0.77,11.84 2.69,17.32zm147.48 -86.46c7.14,-4.54 7.58,-3.57 11.36,-9.94 3.85,-22.49 -54.68,-16.06 -39.5,47.81 10.76,-13.41 7.98,-25.07 28.14,-37.87zm287.36 -17.45c-1.41,21.82 27.42,10.18 38.83,54.69 16.83,-28.03 -9.92,-70.52 -38.83,-54.69zm1.74 53.75c-4.52,-19.61 -26.58,-27.78 -49.42,-27.16 5.38,4.65 6.11,3.63 12.81,6.56 13.24,5.79 14.06,14.96 16.6,24.95 5.05,19.88 23.38,10.24 20.02,-4.35zm-273.63 14.85c28.07,-1.46 4.84,-17.56 26.55,-31.82 3.63,-2.92 4.53,-3.75 8.73,-5.6l8.28 -4.48 -18.5 1.29c-4.76,1.67 -9.78,3.34 -14.27,6.1 -14.26,8.77 -22.39,19.34 -10.8,34.52zm81.99 -146.69c-4.66,-15.32 -5.09,-27.71 9.23,-32.39 14.79,-4.83 26.08,0.95 30.1,11.68 5.61,15.47 -11.44,38.84 -20.15,46.68 -7.9,-3.14 -16.64,-16.89 -19.18,-25.98zm104.45 -24.03c8.59,12.09 -6.45,43.95 -19.33,49.76 -6.4,-6.16 -14.26,-16.69 -17.47,-25.79 -6.26,-12.96 -5.47,-24.52 5.81,-30.32 11.8,-6.07 26.97,-4.21 30.99,6.34zm-49.31 702.04c-121.8,0 -220.54,-98.74 -220.54,-220.54 0,-121.8 98.74,-220.54 220.54,-220.54 121.8,0 220.54,98.74 220.54,220.54 0,31.02 -6.42,60.53 -17.97,87.31 -19.07,40.42 -50.66,76.41 -92.11,103.61 -32.48,18.84 -70.21,29.63 -110.46,29.63z"/>
 </g>
</svg>
